<?xml version="1.0" encoding="UTF-8"?>
<svg id="Layer_1" xmlns="http://www.w3.org/2000/svg" xmlns:xlink="http://www.w3.org/1999/xlink" viewBox="0 0 417.54 175.15">
  <defs>
    <style>
      .cls-1 {
        fill: url(#linear-gradient-2);
      }

      .cls-2, .cls-3, .cls-4 {
        font-family: BookAntiqua, 'Book Antiqua';
        font-size: 14px;
      }

      .cls-2, .cls-5 {
        fill: #5b67af;
      }

      .cls-3, .cls-6 {
        fill: #39b54a;
      }

      .cls-4 {
        fill: #939598;
      }

      .cls-7 {
        fill: url(#linear-gradient);
      }
    </style>
    <linearGradient id="linear-gradient" x1="0" y1="123.88" x2="417.54" y2="123.88" gradientUnits="userSpaceOnUse">
      <stop offset="0" stop-color="#be94bd"/>
      <stop offset=".48" stop-color="#856aa8"/>
      <stop offset="1" stop-color="#453b90"/>
    </linearGradient>
    <linearGradient id="linear-gradient-2" x1="2147.75" y1="4214.49" x2="2147.75" y2="4339.42" gradientTransform="translate(-74.33 627.27) scale(.16 -.11)" gradientUnits="userSpaceOnUse">
      <stop offset="0" stop-color="#8f8f8f"/>
      <stop offset="1" stop-color="#b5b6b6"/>
    </linearGradient>
  </defs>
  <g>
    <image width="1966" height="1998" transform="translate(159.43) scale(.05)" xlink:href="Remove_background_project_Sept_11.png"/>
    <g>
      <path class="cls-7" d="M27.33,105.79c-.55,2.03-.84,4.73-.88,8.09h-2.02v-2.34c0-1.52-.21-2.56-.62-3.11-.41-.55-1.48-1.13-3.21-1.74s-3.55-.92-5.46-.92c-3.12,0-5.58.79-7.37,2.37-1.79,1.58-2.68,3.61-2.68,6.08,0,1.56.37,2.9,1.1,4.02.73,1.12,1.72,1.93,2.96,2.43,1.24.5,3.87.94,7.9,1.31,4.02.39,6.74.91,8.16,1.55,1.42.65,2.55,1.68,3.4,3.11.85,1.43,1.27,3.12,1.27,5.07,0,3.93-1.64,7.31-4.92,10.14s-7.66,4.25-13.12,4.25c-1.88,0-3.76-.19-5.67-.57s-3.82-.94-5.76-1.68c.35-2.34.52-5.35.5-9.02h1.99v1.46c0,1.89.1,3.07.29,3.52.19.45.65.93,1.38,1.44,1.07.76,2.35,1.34,3.84,1.74,1.48.4,3.09.6,4.8.6,3.69,0,6.54-.87,8.55-2.61,2.01-1.74,3.02-3.94,3.02-6.62,0-1.56-.34-2.89-1.03-3.97-.68-1.08-1.64-1.89-2.87-2.42s-3.51-.93-6.83-1.2c-4.41-.35-7.41-.88-8.99-1.58s-2.82-1.81-3.72-3.33c-.9-1.51-1.35-3.39-1.35-5.64,0-3.81,1.38-6.92,4.13-9.35,2.75-2.42,6.56-3.63,11.43-3.63,1.95,0,3.91.21,5.87.63,1.96.42,3.93,1.06,5.9,1.92Z"/>
      <path class="cls-7" d="M37.97,131.33c.1,3.85,1.08,6.77,2.95,8.76,1.87,1.99,4.33,2.99,7.37,2.99,1.37,0,2.72-.22,4.07-.67,1.35-.45,2.68-1.12,4.01-2.02l.5.44-.94,2.46c-1.62.94-3.29,1.64-5.01,2.11-1.72.47-3.49.7-5.3.7-3.97,0-7.16-1.25-9.59-3.76-2.43-2.51-3.65-5.91-3.65-10.21,0-3.28.68-6.12,2.05-8.53.9-1.58,2.56-3.05,4.98-4.39,2.42-1.35,4.78-2.02,7.06-2.02,3.46,0,6.2,1.02,8.22,3.05,2.02,2.03,3.03,4.87,3.03,8.53l-.06,1.73c-1.29.31-2.52.52-3.69.62-2.09.16-4.98.23-8.69.23h-7.31ZM38.03,129.14c3.03.14,6.37.21,10.02.21,1.46,0,2.88-.07,4.25-.21v-1.64c0-1.72-.34-3.35-1.03-4.89-.43-.96-1.18-1.75-2.26-2.39-1.07-.63-2.31-.95-3.72-.95-2.19,0-3.94.8-5.24,2.4-1.31,1.6-1.98,4.09-2.02,7.47Z"/>
      <path class="cls-7" d="M70.55,123.83c.78-.74,1.64-1.72,2.56-2.93,1.1-1.43,2.11-2.4,3.05-2.93s1.93-.79,2.97-.79,1.9.13,2.47.38c.27.12.41.3.41.56l-.03.29c-.31,1.58-.49,3.8-.53,6.65h-1.32c-.45-1-.98-1.7-1.59-2.11-.61-.41-1.35-.62-2.21-.62-1.15,0-2.21.39-3.2,1.17-.98.78-1.64,1.87-1.97,3.28s-.5,4.16-.5,8.28c0,2.71.11,4.99.32,6.85.08.68.27,1.11.59,1.29.74.41,1.84.61,3.28.61h1.76v1.7c-2.99-.14-5.82-.21-8.5-.21s-5.17.07-7.71.21v-1.7l2.81-.23c1-.08,1.63-.26,1.89-.56s.43-1.24.51-2.84c.14-2.81.21-6.15.21-10.02,0-4.71-.19-7.47-.56-8.29-.25-.53-1.05-.79-2.4-.79h-2.46v-1.7c1.89-.21,3.58-.49,5.07-.83,1.48-.34,2.8-.78,3.96-1.3.27-.14.5-.21.67-.21.21,0,.36.06.44.18.08.12.12.38.12.79l-.12,5.82Z"/>
      <path class="cls-7" d="M90.41,131.33c.1,3.85,1.08,6.77,2.95,8.76,1.87,1.99,4.33,2.99,7.37,2.99,1.37,0,2.72-.22,4.07-.67,1.35-.45,2.68-1.12,4.01-2.02l.5.44-.94,2.46c-1.62.94-3.29,1.64-5.01,2.11-1.72.47-3.49.7-5.3.7-3.97,0-7.16-1.25-9.59-3.76-2.43-2.51-3.65-5.91-3.65-10.21,0-3.28.68-6.12,2.05-8.53.9-1.58,2.56-3.05,4.98-4.39,2.42-1.35,4.78-2.02,7.06-2.02,3.46,0,6.2,1.02,8.22,3.05,2.02,2.03,3.03,4.87,3.03,8.53l-.06,1.73c-1.29.31-2.52.52-3.69.62-2.09.16-4.98.23-8.69.23h-7.31ZM90.47,129.14c3.03.14,6.37.21,10.02.21,1.46,0,2.88-.07,4.25-.21v-1.64c0-1.72-.34-3.35-1.03-4.89-.43-.96-1.18-1.75-2.26-2.39-1.07-.63-2.31-.95-3.72-.95-2.19,0-3.94.8-5.24,2.4-1.31,1.6-1.98,4.09-2.02,7.47Z"/>
      <path class="cls-7" d="M122.46,122.78l4.43-3.93c.53-.47,1.09-.81,1.67-1.03,1.29-.43,2.58-.64,3.87-.64,2.09,0,3.9.42,5.43,1.27s2.62,1.95,3.29,3.31c.66,1.36,1,3.48,1,6.37l-.12,9.23c0,3.18.14,5.02.41,5.51.37.63,1.09.94,2.15.94h2.1v1.7c-2.08-.14-3.89-.21-5.4-.21s-3.07.07-4.76.21c.37-3.81.56-8.95.56-15.44,0-2.62-.23-4.47-.69-5.57-.46-1.09-1.23-1.97-2.32-2.64-1.09-.66-2.39-1-3.92-1-1.9,0-3.51.48-4.83,1.44-1.32.96-2.14,2.01-2.45,3.16-.2.76-.29,2.75-.29,5.98,0,3.57.03,6.9.09,9.96.02.92.16,1.49.41,1.73.49.45,1.3.67,2.42.67h2.09v1.7c-3.31-.14-5.94-.21-7.9-.21-2.07,0-4.43.07-7.07.21v-1.7h2.11c1.45,0,2.29-.34,2.53-1.01.24-.67.37-4.73.37-12.16,0-3.34-.04-5.95-.12-7.84-.04-.62-.2-1.05-.47-1.29-.27-.23-1.04-.35-2.31-.35h-2.11v-1.7c1.67-.19,3.17-.46,4.5-.79,1.32-.33,2.81-.84,4.47-1.52.17-.08.34-.12.5-.12.31,0,.47.22.47.67l-.03,1.11-.06,3.96Z"/>
      <path class="cls-7" d="M151,125.15l.03-1.96-.03-2.02,3.19-1.82c1.45-.82,2.71-1.39,3.79-1.7,1.08-.31,2.24-.47,3.47-.47,2.7,0,4.87.6,6.52,1.81s2.64,2.75,2.97,4.62c.23,1.4.38,4.89.44,10.45.04,5.25.16,8.15.35,8.69s.68.82,1.46.82h2.29v1.93c-2.23-.14-3.78-.21-4.66-.21-1.09,0-2.56.07-4.39.21l.03-2.6c0-.84,0-1.69-.03-2.55l-6.06,4.62c-.55.41-1.08.7-1.61.86-.53.17-1.26.25-2.2.25-2.52,0-4.44-.62-5.77-1.86-1.33-1.24-1.99-2.9-1.99-4.99,0-1.97.47-3.69,1.42-5.16.95-1.47,2.29-2.56,4.04-3.26s5.81-1.62,12.17-2.75c-.04-2.48-.59-4.34-1.64-5.57-1.33-1.54-3.22-2.31-5.68-2.31-.94,0-1.82.11-2.64.34-.82.23-1.58.57-2.29,1.03-.57,1.4-1.08,2.73-1.55,4.01l-1.64-.44ZM166.44,129.81c-5.43,1.17-8.88,2.27-10.34,3.29s-2.2,2.61-2.2,4.75c0,1.44.42,2.6,1.26,3.46.84.87,1.92,1.3,3.25,1.3,1.46,0,2.87-.41,4.2-1.23,1.34-.82,2.61-2.04,3.82-3.65l-.06-6.49.06-1.43Z"/>
      <path class="cls-7" d="M201.8,118.97v-10.63c0-1.23-.14-2.01-.41-2.32s-.9-.47-1.88-.47h-2.52v-1.76c3.49-.23,6.74-.94,9.75-2.14l.53.35c-.14,1.99-.25,4.4-.35,7.21l-.12,7.8-.06,2.52v17.5c0,3.26.1,5.08.29,5.45.29.53,1.1.88,2.43,1.06l2.08.26v1.7c-2.41-.18-4.53-.26-6.38-.26-.33,0-1.57.09-3.7.26.14-1.32.24-3.2.32-5.63-1.66,1.28-3.77,3.08-6.35,5.4-1.66.54-3.12.82-4.39.82-3.3,0-6.06-1.24-8.28-3.72-2.22-2.48-3.33-5.8-3.33-9.96,0-2.6.43-4.81,1.29-6.65.86-1.84,1.88-3.17,3.07-4,1.19-.83,3.04-1.88,5.56-3.15,1.93-.96,3.71-1.44,5.35-1.44,1.11,0,2.26.15,3.44.44,1.18.29,2.39.74,3.64,1.35ZM201.8,124.01c-1.35-1.45-2.75-2.53-4.2-3.26-1.45-.72-2.97-1.09-4.55-1.09-2.55,0-4.61.93-6.17,2.8-1.56,1.87-2.34,4.6-2.34,8.2s.89,6.53,2.68,8.61c1.78,2.08,3.95,3.12,6.51,3.12,1.56,0,2.99-.44,4.3-1.31,1.31-.87,2.26-2,2.87-3.39.6-1.39.91-3.57.91-6.54v-7.16Z"/>
      <path class="cls-7" d="M220.72,131.33c.1,3.85,1.08,6.77,2.95,8.76s4.33,2.99,7.37,2.99c1.36,0,2.72-.22,4.07-.67,1.35-.45,2.68-1.12,4.01-2.02l.5.44-.94,2.46c-1.62.94-3.29,1.64-5.01,2.11s-3.49.7-5.3.7c-3.96,0-7.16-1.25-9.59-3.76-2.43-2.51-3.65-5.91-3.65-10.21,0-3.28.68-6.12,2.05-8.53.9-1.58,2.56-3.05,4.98-4.39s4.78-2.02,7.06-2.02c3.46,0,6.2,1.02,8.22,3.05,2.02,2.03,3.03,4.87,3.03,8.53l-.06,1.73c-1.29.31-2.52.52-3.69.62-2.09.16-4.98.23-8.69.23h-7.31ZM220.78,129.14c3.03.14,6.37.21,10.02.21,1.46,0,2.88-.07,4.25-.21v-1.64c0-1.72-.34-3.35-1.03-4.89-.43-.96-1.18-1.75-2.26-2.39-1.07-.63-2.31-.95-3.72-.95-2.19,0-3.94.8-5.24,2.4-1.31,1.6-1.98,4.09-2.02,7.47Z"/>
      <path class="cls-7" d="M301.55,110.15l-8.71,18.12c-3.26,6.8-5.94,12.75-8.03,17.83h-1.17c-.72-1.74-2.8-6.21-6.22-13.4l-10.5-21.73v22.65c0,5.27.21,8.27.63,8.98s1.73,1.07,3.93,1.07h1.09v1.85c-2.72-.14-4.93-.21-6.63-.21-1.23,0-3.69.07-7.37.21v-1.85h1.9c1.29,0,2.15-.19,2.58-.56.43-.37.69-1.04.79-2.02.25-2.73.38-5.68.38-8.85v-16.58c0-4-.09-6.65-.26-7.94-.08-.66-.37-1.17-.86-1.52s-1.49-.53-2.97-.53h-1.55v-1.85c3.4.14,5.54.21,6.42.21,1.11,0,2.7-.07,4.75-.21,2.37,5.26,5.09,11.05,8.18,17.38l7.71,15.86,7.12-14.69c2.5-5.14,5.36-11.32,8.56-18.56,2.44.14,4.16.21,5.16.21,1.15,0,3.23-.07,6.24-.21v1.85h-1.91c-1.73,0-2.78.3-3.17.89-.38.6-.57,2.74-.57,6.43v21.42c0,4.77.2,7.5.6,8.2s1.53,1.05,3.37,1.05h1.68v1.85c-2.71-.14-5.31-.21-7.79-.21-2.73,0-5.6.07-8.58.21v-1.85h1.93c1.54,0,2.48-.34,2.8-1.01s.48-3.57.48-8.69v-23.82Z"/>
      <path class="cls-7" d="M338.55,145.51l.32-5.27-1.73,1.88c-1.35,1.46-2.72,2.5-4.11,3.09-1.39.6-3.12.89-5.16.89-1.75,0-3.27-.37-4.53-1.11s-2.19-1.7-2.76-2.89c-.58-1.18-.86-3.05-.86-5.61,0-1.33.03-2.87.09-4.63l.09-4.72c0-3.3-.09-5.14-.28-5.51-.19-.37-.81-.56-1.86-.56h-2.61v-1.61c2.66-.23,5.12-.72,7.38-1.46l2.44-.91c.33,0,.5.24.5.73l-.21,2.99c-.27,4.14-.41,7.99-.41,11.54s.15,5.83.44,6.81c.29.99.91,1.81,1.84,2.46.94.65,2.08.98,3.42.98,1.81,0,3.47-.59,4.98-1.76s2.5-2.35,2.97-3.54c.25-.68.38-2.74.38-6.18,0-5.78-.11-8.93-.32-9.43-.2-.41-1.07-.62-2.64-.62h-2.31v-1.61c2.01-.23,3.72-.51,5.13-.82,1.41-.31,2.89-.78,4.45-1.41.2-.1.37-.15.53-.15.33,0,.5.19.5.56l-.12,2.72c-.29,6.68-.44,12.56-.44,17.64,0,2.85.15,4.48.44,4.89.43.61,1.36.91,2.78.91h1.7v1.7c-2.44-.14-4.51-.21-6.21-.21-1.27,0-2.54.07-3.81.21Z"/>
      <path class="cls-7" d="M354.58,136.55v1.91c0,1.53.14,2.48.41,2.85.51.63,1.5,1.24,2.97,1.82,1.47.59,2.99.88,4.56.88,2.01,0,3.65-.54,4.92-1.63s1.9-2.38,1.9-3.89c0-1.19-.37-2.15-1.11-2.88-.74-.72-2.16-1.3-4.25-1.73-3.89-.78-6.46-1.47-7.71-2.05-1.25-.59-2.19-1.37-2.81-2.35-.62-.98-.94-2.16-.94-3.55,0-2.6.94-4.71,2.83-6.33,1.89-1.62,4.56-2.43,8.03-2.43,2.74,0,5.47.55,8.19,1.64-.17,1.33-.3,3.56-.41,6.68h-1.76c-.04-1.72-.22-2.85-.56-3.4-.45-.72-1.27-1.38-2.46-1.96s-2.46-.88-3.8-.88c-1.77,0-3.19.46-4.25,1.36-1.06.91-1.59,2.05-1.59,3.42s.42,2.3,1.26,2.96c.84.68,3.16,1.41,6.97,2.17,2.81.57,4.67,1.09,5.57,1.58.9.49,1.62,1.23,2.17,2.23.55,1,.82,2.14.82,3.42,0,2.63-1.13,4.91-3.38,6.82s-5.27,2.87-9.04,2.87c-2.4,0-5.1-.38-8.09-1.13-.53-.13-.79-.34-.79-.61l.09-.41c.08-.29.15-.81.21-1.56.18-1.9.26-3.38.26-4.43l-.03-1.41h1.82Z"/>
      <path class="cls-7" d="M386.66,117.07l.7.44c-.14,1.46-.22,3.08-.26,4.83-.14,5.7-.21,9.91-.21,12.63,0,2.54.09,4.71.26,6.5.08.7.26,1.19.56,1.46.29.27,1,.48,2.11.62l1.99.26v1.7c-2.85-.14-5.45-.21-7.79-.21s-4.63.07-6.97.21v-1.7l2.52-.26c.98-.08,1.58-.26,1.8-.54.22-.28.37-1.23.42-2.83.1-2.49.15-5.91.15-10.28,0-3.04-.05-5.38-.15-7.02-.04-.61-.21-1.04-.51-1.29s-.98-.38-2.04-.38h-2.2v-1.7c2.38-.35,4.14-.67,5.26-.96,1.12-.29,2.57-.78,4.35-1.48ZM384.32,104.09c.9,0,1.67.33,2.31.98.64.65.97,1.44.97,2.36s-.32,1.7-.97,2.34-1.42.97-2.31.97-1.7-.32-2.34-.97-.97-1.43-.97-2.34.32-1.7.97-2.36c.64-.65,1.43-.98,2.34-.98Z"/>
      <path class="cls-7" d="M416.75,141.35l.79.7-1.2,1.88c-1.33.72-2.7,1.26-4.1,1.63s-2.84.54-4.31.54c-2.87,0-5.31-.55-7.31-1.64s-3.55-2.68-4.64-4.75c-1.09-2.07-1.64-4.53-1.64-7.38,0-2.52.42-4.71,1.26-6.58.84-1.86,2.02-3.33,3.53-4.38s3.4-2.09,5.67-3.11c1.6-.72,3.39-1.08,5.36-1.08,1.5,0,2.8.12,3.88.37,1.08.24,2.25.68,3.5,1.31-.49,2.59-.75,5.17-.79,7.76h-1.85v-1.46c0-1.25-.18-2.13-.54-2.65-.36-.52-1.19-1.03-2.48-1.54-1.29-.51-2.7-.76-4.22-.76-2.64,0-4.67.8-6.09,2.41-1.43,1.61-2.14,4.01-2.14,7.21,0,4.12,1.05,7.41,3.16,9.89,1.89,2.24,4.34,3.37,7.32,3.37,1.17,0,2.32-.15,3.46-.44s2.26-.72,3.37-1.29Z"/>
    </g>
  </g>
  <g>
    <path class="cls-5" d="M74.29,159.19c-1.29-.61-2.68-1.05-4.13-1.3-.18.32-.39.75-.53,1.1-1.54-.23-3.06-.23-4.57,0-.14-.34-.36-.78-.53-1.1-1.45.25-2.83.69-4.13,1.3-2.61,3.95-3.32,7.79-2.97,11.59,1.73,1.29,3.41,2.08,5.06,2.59.41-.56.77-1.16,1.08-1.79-.6-.23-1.17-.51-1.71-.83.14-.11.28-.22.42-.33,3.29,1.54,6.87,1.54,10.12,0,.14.11.28.22.42.33-.54.33-1.11.61-1.71.83.31.63.67,1.22,1.08,1.78,1.65-.51,3.33-1.3,5.06-2.59.42-4.4-.71-8.21-2.97-11.59ZM64.03,168.45c-.99,0-1.8-.92-1.8-2.05s.79-2.05,1.8-2.05,1.82.92,1.8,2.05c0,1.12-.79,2.05-1.8,2.05ZM70.67,168.45c-.99,0-1.8-.92-1.8-2.05s.79-2.05,1.8-2.05,1.82.92,1.8,2.05c0,1.12-.79,2.05-1.8,2.05Z"/>
    <text class="cls-2" transform="translate(81.13 169.93)"><tspan x="0" y="0">Discord Bot</tspan></text>
    <path class="cls-6" d="M191.38,170.56v-9.51l-.44-.41-10.12,10.43-1.07-.05,13.53-14.11-.27-.79-9.94.83-4.79,5.5v-.19l3.92-4.49-1.15-.64-7.59.64v2.37l1.59.38h0s.16,0,.16,0l-.47.55v8.83c.51-.1,1.02-.2,1.52-.3l8.79-9.63.69-.03-12.46,13.55,8.06.68,1.13-.64,5.68-5.62v1.79l-4.77,4.64,9.38.79.29-.78v-2.63l-2.74-.15c.36-.34.72-.68,1.07-1.02h0Z"/>
    <text class="cls-3" transform="translate(195.2 170.12)"><tspan x="0" y="0">FFmpeg</tspan></text>
    <path class="cls-1" d="M283.28,161.65c-1.04-.87-2.65-1.46-4.81-1.76l-1.59,5.09c-.03.19-.09.4-.18.64-.16.41-.36.74-.59,1.01-.23.27-.49.47-.77.62-.29.15-.6.25-.93.31-.34.06-.68.07-1.04.05-.36-.02-.66-.07-.91-.15-.25-.08-.48-.21-.69-.39-.16-.18-.25-.41-.27-.69-.02-.29.04-.64.21-1.06.15-.37.33-.69.55-.96.22-.27.48-.48.78-.63.29-.15.59-.25.92-.3.33-.05.69-.06,1.09-.04.33.02.64.07.92.15.14.04.25.09.36.15l1.22-3.91c-.3-.03-.61-.05-.93-.07-3.08-.18-5.67.18-7.77,1.07-2.1.9-3.5,2.22-4.2,3.99-.21.54-.32,1.05-.34,1.53-.2,3.46,2.01,5.41,3.38,6.28.55.37,1.04.55,1.04.55l.63-2.01.19-.49c.82.16,1.74.27,2.75.33,3.1.18,5.7-.17,7.8-1.07,2.1-.9,3.49-2.21,4.16-3.95.68-1.74.35-3.16-.97-4.27"/>
    <text class="cls-4" transform="translate(289.32 170.12)"><tspan x="0" y="0">Opus Codec</tspan></text>
  </g>
</svg>
